<?xml version="1.0" encoding="utf-8"?>
<!-- Generator: Adobe Illustrator 19.1.0, SVG Export Plug-In . SVG Version: 6.00 Build 0)  -->
<svg version="1.1" id="Layer_1" xmlns="http://www.w3.org/2000/svg" xmlns:xlink="http://www.w3.org/1999/xlink" x="0px" y="0px"
	 viewBox="0 0 300 300" style="enable-background:new 0 0 300 300;" xml:space="preserve">
<style type="text/css">
	.st0{fill:#E3BA96;}
	.st1{fill:#23252C;}
	.st2{fill:#272019;}
	.st3{fill:#E9C8AB;}
	.st4{fill:#E3A08D;}
	.st5{fill:#FFFFFF;}
	.st6{fill:#808080;}
	.st7{fill:#3A2C1F;}
</style>
<path class="st0" d="M225,150l-10-60H85l-10,60c-5.5,0-10,4.5-10,10v30c0,5.5,4.5,10,10,10c6.6,19.8,17.1,38,31,53.6l2.4,2.7
	C119,268.2,134.1,275,150,275s31-6.8,41.6-18.7l2.4-2.7c13.9-15.6,24.4-33.8,31-53.6c5.5,0,10-4.5,10-10v-30
	C235,154.5,230.5,150,225,150z"/>
<circle class="st1" cx="117.5" cy="157.5" r="7.5"/>
<circle class="st1" cx="182.5" cy="157.5" r="7.5"/>
<path class="st2" d="M175,140h30c2.8,0,5,2.2,5,5l0,0h-40l0,0C170,142.2,172.2,140,175,140z"/>
<path class="st2" d="M95,140h30c2.8,0,5,2.2,5,5l0,0H90l0,0C90,142.2,92.2,140,95,140z"/>
<path class="st3" d="M150,215L150,215c-5.5,0-10-4.5-10-10v-55h20v55C160,210.5,155.5,215,150,215z"/>
<path class="st4" d="M165,235h-30c-5.5,0-10-4.5-10-10l0,0h50l0,0C175,230.5,170.5,235,165,235z"/>
<polygon class="st5" points="228.3,192.4 226.7,189.6 228.3,186.7 231.7,186.7 233.3,189.6 231.7,192.4 "/>
<polygon class="st6" points="231.7,192.4 228.3,192.4 226.9,190 226.7,190.4 228.3,193.3 231.7,193.3 233.3,190.4 233.1,190 "/>
<path class="st2" d="M198.1,90H102c-9.8,0-18.1,7.1-19.7,16.7l-7.3,45l-5,3.3v-45c0-22.1,17.9-40,40-40h80c22.1,0,40,17.9,40,40v45
	l-5-3.3l-7.2-45C216.2,97.1,207.8,90,198.1,90z"/>
<path class="st2" d="M110,110c0.1-0.1,0.1-0.2,0.2-0.3c6.5-9.9,2.8-23.2-7.8-28.5L90,75c1.5-8.4,7.2-15.5,14.4-21.2
	c17.8-14.1,41.9-17.5,63.3-9.5l23.5,8.8C202.5,57.2,210,68,210,80l0,0l0,0c-29.3,19.6-63.8,30-99.1,30H110z"/>
<path class="st7" d="M230,151.7l-14-1.2c-2.5-0.2-5-1.3-6.7-3.1c-2.3-2.5-5.5-4-9.2-4h-28.9c-3.5,0-6.7,1.4-8.9,3.7
	c-2,2-4.7,3.2-7.5,3.2h-9.5c-2.8,0-5.5-1.2-7.5-3.2c-2.3-2.3-5.4-3.7-8.9-3.7h-29c-3.7,0-6.9,1.6-9.2,4c-1.7,1.9-4.2,2.9-6.7,3.1
	l-14,1.2v5l13.6,1.1c2.4,0.2,4.2,2,4.5,4.4l0.4,3.5c1.6,13,12.7,22.7,25.8,22.7l0,0c12.1,0,22.4-7.6,25.2-19l4.4-8.8
	c0.4-0.7-0.2-1.5-1-1.5l-1-0.5c-0.5-0.2-0.8-0.7-0.8-1.3l0,0c0-1,0.8-1.7,1.7-1.7h13.8c0.9,0,1.7,0.6,1.8,1.4c0.2,1.1-0.7,2-1.7,2
	c-0.8,0-1.3,0.8-1,1.5l4.4,8.8c2.8,11.4,13.2,19,25.2,19l0,0c13.1,0,24.2-9.7,25.8-22.7l0.4-3.5c0.3-2.3,2.2-4.2,4.5-4.4l14-1V151.7
	L230,151.7z M137.9,158.6l-0.9,6.6c-1.5,11.3-11.2,19.7-22.7,19.7l0,0c-11.4,0-21.1-8.4-22.7-19.7l-0.9-6.6
	c-0.9-6.2,4-11.8,10.3-11.8h26.5C133.9,146.8,138.8,152.3,137.9,158.6z M209.2,158.6l-0.9,6.6c-1.5,11.3-11.2,19.7-22.7,19.7l0,0
	c-11.4,0-21.1-8.4-22.7-19.7l-0.9-6.6c-0.9-6.2,4-11.8,10.3-11.8h26.5C205.2,146.8,210.1,152.3,209.2,158.6z"/>
</svg>
