<?xml version="1.0" encoding="utf-8"?>
<!-- Generator: Adobe Illustrator 19.1.0, SVG Export Plug-In . SVG Version: 6.00 Build 0)  -->
<svg version="1.1" id="Layer_1" xmlns="http://www.w3.org/2000/svg" xmlns:xlink="http://www.w3.org/1999/xlink" x="0px" y="0px"
	 viewBox="0 0 300 300" style="enable-background:new 0 0 300 300;" xml:space="preserve">
<style type="text/css">
	.st0{fill:#E3BA96;}
	.st1{fill:#23252C;}
	.st2{fill:#272019;}
	.st3{fill:#E9C8AB;}
	.st4{fill:#E3A08D;}
	.st5{fill:#FFFFFF;}
	.st6{fill:#808080;}
</style>
<path class="st0" d="M225,200L225,200c-6.6,19.8-17.1,38-31,53.6l-2.4,2.7C181,268.2,165.9,275,150,275h0c-15.9,0-31-6.8-41.6-18.7
	l-2.4-2.7C92.1,238,81.6,219.8,75,200l0,0H225z"/>
<path class="st0" d="M75,200h150c5.5,0,10-4.5,10-10v-30c0-5.5-4.5-10-10-10l-10-60H85l-10,60c-5.5,0-10,4.5-10,10v30
	C65,195.5,69.5,200,75,200z"/>
<circle class="st1" cx="117.5" cy="157.5" r="7.5"/>
<circle class="st1" cx="182.5" cy="157.5" r="7.5"/>
<rect x="170" y="140" class="st2" width="40" height="5"/>
<rect x="90" y="140" class="st2" width="40" height="5"/>
<path class="st3" d="M150,215L150,215c-5.5,0-10-4.5-10-10v-55h20v55C160,210.5,155.5,215,150,215z"/>
<path class="st4" d="M165,235h-30c-5.5,0-10-4.5-10-10l0,0h50l0,0C175,230.5,170.5,235,165,235z"/>
<polygon class="st5" points="228.3,192.4 226.7,189.6 228.3,186.7 231.7,186.7 233.3,189.6 231.7,192.4 "/>
<polygon class="st6" points="231.7,192.4 228.3,192.4 226.9,190 226.7,190.4 228.3,193.3 231.7,193.3 233.3,190.4 233.1,190 "/>
<path class="st2" d="M198.1,90h-96.1c-9.8,0-18.1,7.1-19.7,16.7L75,150l-5,5v-45c0-22.1,17.9-40,40-40h80c22.1,0,40,17.9,40,40v45
	l-5-5l-7.2-43.3C216.2,97.1,207.8,90,198.1,90z"/>
<path class="st2" d="M80.5,64.4C96,45.8,119,35.1,143.3,35.2h0c9.2,0,18.4,1.6,27.1,4.8l15.3,5.5c11.8,2.8,20.7,12.4,22.7,24.3
	L210,80l0,0c-22.9,16.4-49.8,26.5-77.8,29.3L110,110l0,0c6.1-9.1,6.1-20.9,0-30l0,0L80,65L80.5,64.4z"/>
</svg>
