<?xml version="1.0" encoding="utf-8"?>
<!-- Generator: Adobe Illustrator 19.1.0, SVG Export Plug-In . SVG Version: 6.00 Build 0)  -->
<svg version="1.1" id="Layer_1" xmlns="http://www.w3.org/2000/svg" xmlns:xlink="http://www.w3.org/1999/xlink" x="0px" y="0px"
	 viewBox="0 0 300 300" style="enable-background:new 0 0 300 300;" xml:space="preserve">
<style type="text/css">
	.st0{fill:#E3BA96;}
	.st1{fill:#23252C;}
	.st2{fill:#534741;}
	.st3{fill:#E9C8AB;}
	.st4{fill:#E3A08D;}
	.st5{fill:#333333;}
</style>
<g id="Andy">
	<path class="st0" d="M225,150V89H75v61H65v40c0,5.5,4.5,10,10,10l1,6.4c3.5,25.8,20,48.1,43.8,58.2c4.2,5.8,10.6,9.4,19.2,9.4h20
		c8.1,0,14.2-3.2,18.4-8.3c3.4-1.4,6.9-3.1,10.3-5.1c18.1-10.5,30.7-28.5,34.9-49L225,200c5.5,0,10-4.5,10-10v-40H225z"/>
	<circle class="st1" cx="117.5" cy="157.5" r="7.5"/>
	<circle class="st1" cx="182.5" cy="157.5" r="7.5"/>
	<rect x="170" y="140" class="st2" width="40" height="5"/>
	<rect x="90" y="140" class="st2" width="40" height="5"/>
	<path class="st3" d="M150,215L150,215c-5.5,0-10-4.5-10-10v-55h20v55C160,210.5,155.5,215,150,215z"/>
	<path class="st4" d="M165,235h-30c-5.5,0-10-4.5-10-10l0,0h50l0,0C175,230.5,170.5,235,165,235z"/>
	<path class="st2" d="M56.4,136.2l12.1,38.7c0.9,2.8,3.5,4.8,6.5,4.8l0,0V140l36.8-7.8c21.8-4.6,42.8-12.5,62.2-23.5l33.7-19l0,0
		C219,110,225,132.9,225,156.2V169l1.2-0.3c2.4-0.6,4.2-2.4,4.9-4.8l4-14.5c4.8-17.6,5.9-36,3.3-54.1l-2.1-11
		c-2.9-15.5-12.1-29.1-25.4-37.6l0,0c-11.1-7.1-24.4-10.2-37.5-8.6l-62.7,7.3c-27.7,5.2-49.6,26.5-55.8,54l0,0
		C52.1,111.6,52.6,124.3,56.4,136.2z"/>
	<path class="st5" d="M215,151.8v2.2c0-5.5-4.5-10-10-10h-35c-5.5,0-10,4.5-10,10v1.2h-20V154c0-5.5-4.5-10-10-10H95
		c-5.5,0-10,4.5-10,10v-2.2H75v5h10v7.2c0,5.5,4.5,10,10,10h35c5.5,0,10-4.5,10-10v-3.8h20v3.8c0,5.5,4.5,10,10,10h35
		c5.5,0,10-4.5,10-10v-7.2h10v-5H215z M135,164c0,2.8-2.2,5-5,5H95c-2.8,0-5-2.2-5-5v-10c0-2.8,2.2-5,5-5h35c2.8,0,5,2.2,5,5V164z
		 M210,164c0,2.8-2.2,5-5,5h-35c-2.8,0-5-2.2-5-5v-10c0-2.8,2.2-5,5-5h35c2.8,0,5,2.2,5,5V164z"/>
</g>
</svg>
