<?xml version="1.0" encoding="utf-8"?>
<!-- Generator: Adobe Illustrator 19.1.0, SVG Export Plug-In . SVG Version: 6.00 Build 0)  -->
<svg version="1.1" id="Layer_1" xmlns="http://www.w3.org/2000/svg" xmlns:xlink="http://www.w3.org/1999/xlink" x="0px" y="0px"
	 viewBox="0 0 300 300" style="enable-background:new 0 0 300 300;" xml:space="preserve">
<style type="text/css">
	.st0{fill:#E3B28C;}
	.st1{fill:url(#SVGID_1_);}
	.st2{fill:#23252C;}
	.st3{fill:#534741;}
	.st4{fill:#E7BC9C;}
	.st5{fill:#E3A08D;}
</style>
<g id="Clint">
	<rect x="75" y="91.5" class="st0" width="150" height="112"/>
	<path class="st0" d="M162,272.5h-24c-20,0-38.1-11.9-46-30.3l-17-39.7h150l-17,39.7C200.1,260.6,182,272.5,162,272.5z"/>
	<path class="st0" d="M150,202.5L150,202.5c-24.9,0-45,20.1-45,45l0,0c0,16.6,13.4,30,30,30h30c16.6,0,30-13.4,30-30l0,0
		C195,222.6,174.9,202.5,150,202.5z"/>
	
		<linearGradient id="SVGID_1_" gradientUnits="userSpaceOnUse" x1="150" y1="22.5" x2="150" y2="97.5" gradientTransform="matrix(1 0 0 -1 0 300)">
		<stop  offset="0" style="stop-color:#736357"/>
		<stop  offset="4.813862e-02" style="stop-color:#887261"/>
		<stop  offset="0.1294" style="stop-color:#A4856E"/>
		<stop  offset="0.2211" style="stop-color:#BB9679"/>
		<stop  offset="0.3258" style="stop-color:#CDA382"/>
		<stop  offset="0.4514" style="stop-color:#DAAB88"/>
		<stop  offset="0.6189" style="stop-color:#E1B18B"/>
		<stop  offset="1" style="stop-color:#E3B28C"/>
	</linearGradient>
	<path class="st1" d="M150,202.5L150,202.5c-24.9,0-45,20.1-45,45l0,0c0,16.6,13.4,30,30,30h30c16.6,0,30-13.4,30-30l0,0
		C195,222.6,174.9,202.5,150,202.5z"/>
	<rect x="65" y="152.5" class="st0" width="10" height="50"/>
	<rect x="225" y="152.5" class="st0" width="10" height="50"/>
	<circle class="st2" cx="117.5" cy="160" r="7.5"/>
	<circle class="st2" cx="182.5" cy="160" r="7.5"/>
	<rect x="170" y="142.5" class="st3" width="40" height="5"/>
	<rect x="90" y="142.5" class="st3" width="40" height="5"/>
	<path class="st4" d="M150,217.5L150,217.5c-5.5,0-10-4.5-10-10v-55h20v55C160,213,155.5,217.5,150,217.5z"/>
	<path class="st5" d="M165,237.5h-30c-5.5,0-10-4.5-10-10l0,0h50l0,0C175,233,170.5,237.5,165,237.5z"/>
	<polygon class="st3" points="230,87.5 210,67.5 200,52.5 195,57.5 180,32.5 170,37.5 165,22.5 125,47.5 120,42.5 100,57.5 80,77.5 
		70,87.5 70,152.5 75,152.5 75,107.5 85,92.5 110,92.5 185,92.5 215,92.5 225,107.5 225,152.5 230,152.5 	"/>
</g>
</svg>
