<?xml version="1.0" encoding="utf-8"?>
<!-- Generator: Adobe Illustrator 19.1.0, SVG Export Plug-In . SVG Version: 6.00 Build 0)  -->
<svg version="1.1" id="Layer_1" xmlns="http://www.w3.org/2000/svg" xmlns:xlink="http://www.w3.org/1999/xlink" x="0px" y="0px"
	 viewBox="0 0 300 300" style="enable-background:new 0 0 300 300;" xml:space="preserve">
<style type="text/css">
	.st0{fill:#E3B28C;}
	.st1{fill:#E3BA96;}
	.st2{fill:url(#SVGID_1_);}
	.st3{fill:#23252C;}
	.st4{fill:#534741;}
	.st5{fill:#E9C8AB;}
	.st6{fill:#E3A08D;}
</style>
<g id="Clint">
	<path class="st0" d="M150,202.5L150,202.5c-24.9,0-45,20.1-45,45l0,0c0,16.6,13.4,30,30,30h30c16.6,0,30-13.4,30-30l0,0
		C195,222.6,174.9,202.5,150,202.5z"/>
	<path class="st1" d="M225,152.5v-61H75v61c-5.5,0-10,4.5-10,10v30c0,5.5,4.5,10,10,10l17,39.7c7.9,18.4,26,30.3,46,30.3h24
		c20,0,38.1-11.9,46-30.3l17-39.7c5.5,0,10-4.5,10-10v-30C235,157,230.5,152.5,225,152.5z"/>
	
		<linearGradient id="SVGID_1_" gradientUnits="userSpaceOnUse" x1="150" y1="22.5" x2="150" y2="97.5" gradientTransform="matrix(1 0 0 -1 0 300)">
		<stop  offset="0" style="stop-color:#736357"/>
		<stop  offset="4.813862e-02" style="stop-color:#887261"/>
		<stop  offset="0.1294" style="stop-color:#A4856E"/>
		<stop  offset="0.2211" style="stop-color:#BB9679"/>
		<stop  offset="0.3258" style="stop-color:#CDA382"/>
		<stop  offset="0.4514" style="stop-color:#DAAB88"/>
		<stop  offset="0.5634" style="stop-color:#DFB38F"/>
		<stop  offset="0.6358" style="stop-color:#E3B894"/>
		<stop  offset="1" style="stop-color:#E3BA96"/>
	</linearGradient>
	<path class="st2" d="M150,202.5L150,202.5c-24.9,0-45,20.1-45,45l0,0c0,16.6,13.4,30,30,30h30c16.6,0,30-13.4,30-30l0,0
		C195,222.6,174.9,202.5,150,202.5z"/>
	<circle class="st3" cx="117.5" cy="160" r="7.5"/>
	<circle class="st3" cx="182.5" cy="160" r="7.5"/>
	<rect x="170" y="142.5" class="st4" width="40" height="5"/>
	<rect x="90" y="142.5" class="st4" width="40" height="5"/>
	<path class="st5" d="M150,217.5L150,217.5c-5.5,0-10-4.5-10-10v-55h20v55C160,213,155.5,217.5,150,217.5z"/>
	<path class="st6" d="M165,237.5h-30c-5.5,0-10-4.5-10-10l0,0h50l0,0C175,233,170.5,237.5,165,237.5z"/>
	<path class="st4" d="M80,77.5L80,77.5c-6.4,6.4-10,15.1-10,24.1v53.3l5-2.4l7.9-47.5c1.2-7.2,7.5-12.5,14.8-12.5h104.6
		c7.3,0,13.6,5.3,14.8,12.5l7.9,47.5l5,2.4v-53.3c0-9.1-3.6-17.7-10-24.1l-10-10l-10-15l-5,5l-15-25l-10,5l-5-15l-40,25l-5-5
		L80,77.5z"/>
</g>
</svg>
