<?xml version="1.0" encoding="utf-8"?>
<!-- Generator: Adobe Illustrator 19.1.0, SVG Export Plug-In . SVG Version: 6.00 Build 0)  -->
<svg version="1.1" id="Layer_1" xmlns="http://www.w3.org/2000/svg" xmlns:xlink="http://www.w3.org/1999/xlink" x="0px" y="0px"
	 viewBox="-29 16 300 300" style="enable-background:new -29 16 300 300;" xml:space="preserve">
<style type="text/css">
	.st0{fill:#E3B28C;}
	.st1{fill:#23252C;}
	.st2{fill:#2A2421;}
	.st3{fill:#E7BC9C;}
	.st4{fill:#E3A08D;}
</style>
<g id="Hannah">
	<path class="st0" d="M50.7,208.9h140"/>
	<path class="st0" d="M200.7,158.9H193l2.7-61h-150l2.7,61h-7.7v40c0,5.5,4.5,10,10,10l0,0v1L82,258c8.6,13,23.1,20.9,38.7,20.9
		s30.2-7.8,38.7-20.9l31.3-48.1v-1l0,0c5.5,0,10-4.5,10-10V158.9z"/>
	<circle class="st1" cx="88.2" cy="166.4" r="7.5"/>
	<circle class="st1" cx="153.2" cy="166.4" r="7.5"/>
	<path class="st2" d="M145.7,148.9h25c2.8,0,5,2.2,5,5l0,0h-35l0,0C140.7,151.1,142.9,148.9,145.7,148.9z"/>
	<path class="st2" d="M65.7,148.9h30c2.8,0,5,2.2,5,5l0,0h-35V148.9z"/>
	<path class="st3" d="M120.7,223.9L120.7,223.9c-5.5,0-10-4.5-10-10v-55h20v55C130.7,219.4,126.2,223.9,120.7,223.9z"/>
	<path class="st4" d="M132.7,245.9h-24c-4.4,0-8-4.5-8-10l0,0h40l0,0C140.7,241.4,137.1,245.9,132.7,245.9z"/>
	<path class="st2" d="M36.9,178.2l18.8,55.7l0,0c9.6-48,37.9-90.3,78.6-117.4l26.4-17.6l0,0c19.5,26,30,57.5,30,90v30l0,0
		c6.5-6.5,10.7-14.9,12-24L209,139c1-9.1,0.3-18.4-2.1-27.2l0,0c-7-26-27.8-46.1-54-52.2l-11.7-2.7c-16.6-5.2-34.4-5-50.9,0.6l0,0
		C60,67.7,38.4,94.6,34.8,126.3L33,142.7C31.7,154.7,33,166.8,36.9,178.2z"/>
</g>
</svg>
