<?xml version="1.0" encoding="utf-8"?>
<!-- Generator: Adobe Illustrator 19.1.0, SVG Export Plug-In . SVG Version: 6.00 Build 0)  -->
<svg version="1.1" id="Layer_1" xmlns="http://www.w3.org/2000/svg" xmlns:xlink="http://www.w3.org/1999/xlink" x="0px" y="0px"
	 viewBox="0 0 300 300" style="enable-background:new 0 0 300 300;" xml:space="preserve">
<style type="text/css">
	.st0{fill:#E3B28C;}
	.st1{fill:#23252C;}
	.st2{fill:#2A2421;}
	.st3{fill:#E7BC9C;}
	.st4{fill:#E3A08D;}
	.st5{fill:url(#SVGID_1_);}
	.st6{fill:#FFFFFF;}
</style>
<g id="Hannah">
	<path class="st0" d="M79.7,192.9h140"/>
	<path class="st0" d="M230,145h-7.7l2.7-61H75l2.7,61H70v40c0,5.5,4.5,10,10,10l0,0v1l31.3,48.1c8.6,13,23.1,20.9,38.7,20.9
		s30.2-7.8,38.7-20.9L220,196v-1l0,0c5.5,0,10-4.5,10-10V145z"/>
	<circle class="st1" cx="117.2" cy="150.4" r="7.5"/>
	<circle class="st1" cx="182.2" cy="150.4" r="7.5"/>
	<path class="st2" d="M174.7,132.9h25c2.8,0,5,2.2,5,5l0,0h-35l0,0C169.7,135.1,171.9,132.9,174.7,132.9z"/>
	<path class="st2" d="M94.7,132.9h30c2.8,0,5,2.2,5,5l0,0h-35V132.9z"/>
	<path class="st3" d="M149.7,207.9L149.7,207.9c-5.5,0-10-4.2-10-9.2v-50.8h20v50.8C159.7,203.7,155.2,207.9,149.7,207.9z"/>
	<path class="st4" d="M161.7,229.9h-24c-4.4,0-8-4.5-8-10l0,0h40l0,0C169.7,225.4,166.1,229.9,161.7,229.9z"/>
	<path class="st2" d="M65.9,162.2l18.8,55.7l0,0c9.6-48,37.9-90.3,78.6-117.4l26.4-17.6l0,0c19.5,26,30,57.5,30,90v30l0,0
		c6.5-6.5,10.7-14.9,12-24L238,123c1-9.1,0.3-18.4-2.1-27.2l0,0c-7-26-27.8-46.1-54-52.2l-11.7-2.7c-16.6-5.2-34.4-5-50.9,0.6l0,0
		C89,51.7,67.4,78.6,63.8,110.3L62,126.7C60.7,138.7,62,150.8,65.9,162.2z"/>
	<linearGradient id="SVGID_1_" gradientUnits="userSpaceOnUse" x1="135" y1="147.5" x2="165" y2="147.5">
		<stop  offset="0" style="stop-color:#FFFFFF"/>
		<stop  offset="0.146" style="stop-color:#FEFEFD"/>
		<stop  offset="0.2238" style="stop-color:#FDFBF5"/>
		<stop  offset="0.2856" style="stop-color:#FAF6E7"/>
		<stop  offset="0.339" style="stop-color:#F5EFD4"/>
		<stop  offset="0.3869" style="stop-color:#F0E5BB"/>
		<stop  offset="0.4309" style="stop-color:#E9DA9C"/>
		<stop  offset="0.4719" style="stop-color:#E0CC78"/>
		<stop  offset="0.5096" style="stop-color:#D7BC4E"/>
		<stop  offset="0.5267" style="stop-color:#D2B439"/>
	</linearGradient>
	<rect x="135" y="145" class="st5" width="30" height="5"/>
	<path class="st6" d="M224.7,138.3c1.1-3.2-1.3-6.6-4.7-6.6h-41.8c-11.1,0-20.4,7.9-22.7,18.3H155v4.8v0v1.7c0,1.9,1.6,3.5,3.5,3.5
		l0,0c-0.3,1.6-0.4,3.2-0.4,4.9v0c0,16.6,13.5,30.1,30.1,30.1h0c16.6,0,30.1-13.5,30.1-30.1v0c0-3.5-1.7-10-1.7-10L224.7,138.3z
		 M215.3,164.9c0,15-12.1,27.1-27.1,27.1h0c-15,0-27.1-12.1-27.1-27.1v0c0-15,12.1-27.1,27.1-27.1h0
		C203.2,137.8,215.3,149.9,215.3,164.9L215.3,164.9z"/>
	<path class="st6" d="M83.4,154.8c0,0-1.7,6.5-1.7,10v0c0,16.6,13.5,30.1,30.1,30.1h0c16.6,0,30.1-13.5,30.1-30.1v0
		c0-1.7-0.1-3.3-0.4-4.9l0,0c1.9,0,3.5-1.6,3.5-3.5v-1.7v0V150h-0.5c-2.2-10.5-11.5-18.3-22.7-18.3H80c-3.4,0-5.8,3.4-4.7,6.6
		L83.4,154.8z M84.7,164.9c0-15,12.1-27.1,27.1-27.1h0c15,0,27.1,12.1,27.1,27.1v0c0,15-12.1,27.1-27.1,27.1h0
		C96.8,192,84.7,179.9,84.7,164.9L84.7,164.9z"/>
</g>
</svg>
